<svg width="29" height="36" viewBox="0 0 29 36" fill="none" xmlns="http://www.w3.org/2000/svg">
<path d="M3 3.26393C3 3.26393 6.5 1.26585 14 8.26491C21.5 15.264 26.5 13.2639 26.5 13.2639" stroke="white" stroke-width="3.5" stroke-linecap="round"/>
<path d="M14.1464 34.6178C14.3417 34.8131 14.6583 34.8131 14.8536 34.6178L18.0355 31.4358C18.2308 31.2406 18.2308 30.924 18.0355 30.7287C17.8403 30.5335 17.5237 30.5335 17.3284 30.7287L14.5 33.5572L11.6716 30.7287C11.4763 30.5335 11.1597 30.5335 10.9645 30.7287C10.7692 30.924 10.7692 31.2406 10.9645 31.4358L14.1464 34.6178ZM14 34.2642V34.2643H15V34.2642H14Z" fill="white"/>
</svg>
